# xmcd CD database file
#
# Track frame offsets:
#	150
#	21795
#	46653
#	72156
#	97419
#	123231
#	145158
#	167685
#	196125
#	222006
#
# Disc length: 3257 seconds
#
# Revision: 0
# Processed by: cddbd v1.5.2PL0 Copyright (c) Steve Scherf et al.
# Submitted via: CDex 1.51
#
DISCID=870cb70a
DTITLE=Damien Prud'homme - Tribal Jazz Project
DYEAR=2008
DGENRE=Jazz
TTITLE0=Eulalie
TTITLE1=Thalie
TTITLE2=La Chanson Des Vieux Amants
TTITLE3=Wonderland
TTITLE4=Malaika
TTITLE5=Fragile
TTITLE6=Couleur Café
TTITLE7=Manahos
TTITLE8=Trou Noir
TTITLE9=Game Over
EXTD=YEAR: 2008
EXTT0=
EXTT1=
EXTT2=
EXTT3=
EXTT4=
EXTT5=
EXTT6=
EXTT7=
EXTT8=
EXTT9=
PLAYORDER=
